<?xml version="1.0" encoding="UTF-8"?>
<svg id="Layer_1" data-name="Layer 1" xmlns="http://www.w3.org/2000/svg" viewBox="0 0 518.25 518.25">
  <defs>
    <style>
      .cls-1 {
        fill: #252525;
      }

      .cls-2 {
        fill: #fff;
      }

      .cls-3 {
        fill: #191919;
      }

      .cls-4 {
        fill: #2f2f2f;
      }

      .cls-5 {
        fill: #c4a12e;
        font-family: CascadiaMono-Roman, 'Cascadia Mono';
        font-size: 200px;
        font-variation-settings: 'wght' 400;
      }
    </style>
  </defs>
  <rect class="cls-3" x="3.13" y="3.12" width="512" height="512" rx="62.75" ry="62.75"/>
  <circle class="cls-2" cx="67.12" cy="3.12" r="3.12"/>
  <circle class="cls-2" cx="131.12" cy="3.12" r="3.12"/>
  <circle class="cls-2" cx="195.12" cy="3.12" r="3.12"/>
  <circle class="cls-2" cx="259.12" cy="3.12" r="3.12"/>
  <circle class="cls-2" cx="323.12" cy="3.12" r="3.12"/>
  <circle class="cls-2" cx="387.12" cy="3.12" r="3.12"/>
  <circle class="cls-2" cx="451.12" cy="3.12" r="3.12"/>
  <circle class="cls-2" cx="67.12" cy="67.12" r="3.12"/>
  <circle class="cls-2" cx="131.12" cy="67.12" r="3.12"/>
  <circle class="cls-2" cx="195.12" cy="67.12" r="3.12"/>
  <circle class="cls-2" cx="259.12" cy="67.12" r="3.12"/>
  <circle class="cls-2" cx="323.12" cy="67.12" r="3.12"/>
  <circle class="cls-2" cx="387.12" cy="67.12" r="3.12"/>
  <circle class="cls-2" cx="451.12" cy="67.12" r="3.12"/>
  <circle class="cls-2" cx="515.12" cy="67.12" r="3.12"/>
  <circle class="cls-2" cx="3.12" cy="67.12" r="3.12"/>
  <circle class="cls-2" cx="67.12" cy="131.12" r="3.12"/>
  <circle class="cls-2" cx="131.12" cy="131.12" r="3.12"/>
  <circle class="cls-2" cx="195.12" cy="131.12" r="3.12"/>
  <circle class="cls-2" cx="259.12" cy="131.12" r="3.12"/>
  <circle class="cls-2" cx="323.12" cy="131.12" r="3.12"/>
  <circle class="cls-2" cx="387.12" cy="131.12" r="3.12"/>
  <circle class="cls-2" cx="451.12" cy="131.12" r="3.12"/>
  <circle class="cls-2" cx="515.12" cy="131.12" r="3.12"/>
  <circle class="cls-2" cx="3.12" cy="131.12" r="3.12"/>
  <circle class="cls-2" cx="67.12" cy="195.12" r="3.12"/>
  <circle class="cls-2" cx="131.12" cy="195.12" r="3.12"/>
  <circle class="cls-2" cx="195.12" cy="195.12" r="3.12"/>
  <circle class="cls-2" cx="259.12" cy="195.12" r="3.12"/>
  <circle class="cls-2" cx="387.12" cy="195.12" r="3.12"/>
  <circle class="cls-2" cx="451.12" cy="195.12" r="3.12"/>
  <circle class="cls-2" cx="515.12" cy="195.12" r="3.12"/>
  <circle class="cls-2" cx="3.12" cy="195.12" r="3.12"/>
  <circle class="cls-2" cx="67.12" cy="259.12" r="3.12"/>
  <circle class="cls-2" cx="131.12" cy="259.12" r="3.12"/>
  <circle class="cls-2" cx="195.12" cy="259.12" r="3.12"/>
  <circle class="cls-2" cx="259.12" cy="259.12" r="3.12"/>
  <circle class="cls-2" cx="323.12" cy="259.12" r="3.12"/>
  <circle class="cls-2" cx="387.12" cy="259.12" r="3.12"/>
  <circle class="cls-2" cx="451.12" cy="259.12" r="3.12"/>
  <circle class="cls-2" cx="515.12" cy="259.12" r="3.12"/>
  <circle class="cls-2" cx="3.12" cy="259.12" r="3.12"/>
  <circle class="cls-2" cx="67.12" cy="323.12" r="3.12"/>
  <circle class="cls-2" cx="131.12" cy="323.12" r="3.12"/>
  <circle class="cls-2" cx="195.12" cy="323.12" r="3.12"/>
  <circle class="cls-2" cx="259.12" cy="323.12" r="3.12"/>
  <circle class="cls-2" cx="323.12" cy="323.12" r="3.12"/>
  <circle class="cls-2" cx="387.12" cy="323.12" r="3.12"/>
  <circle class="cls-2" cx="451.12" cy="323.12" r="3.12"/>
  <circle class="cls-2" cx="515.12" cy="323.12" r="3.12"/>
  <circle class="cls-2" cx="3.12" cy="323.12" r="3.12"/>
  <circle class="cls-2" cx="67.12" cy="387.12" r="3.12"/>
  <circle class="cls-2" cx="131.12" cy="387.12" r="3.12"/>
  <circle class="cls-2" cx="195.12" cy="387.12" r="3.12"/>
  <circle class="cls-2" cx="259.12" cy="387.12" r="3.12"/>
  <circle class="cls-2" cx="323.12" cy="387.12" r="3.12"/>
  <circle class="cls-2" cx="387.12" cy="387.12" r="3.12"/>
  <circle class="cls-2" cx="451.12" cy="387.12" r="3.12"/>
  <circle class="cls-2" cx="515.12" cy="387.12" r="3.12"/>
  <circle class="cls-2" cx="3.12" cy="387.12" r="3.12"/>
  <circle class="cls-2" cx="67.12" cy="451.12" r="3.12"/>
  <circle class="cls-2" cx="131.12" cy="451.12" r="3.12"/>
  <circle class="cls-2" cx="195.12" cy="451.12" r="3.12"/>
  <circle class="cls-2" cx="259.12" cy="451.12" r="3.12"/>
  <circle class="cls-2" cx="323.12" cy="451.12" r="3.12"/>
  <circle class="cls-2" cx="387.12" cy="451.12" r="3.12"/>
  <circle class="cls-2" cx="451.12" cy="451.12" r="3.12"/>
  <circle class="cls-2" cx="515.12" cy="451.12" r="3.12"/>
  <circle class="cls-2" cx="3.12" cy="451.12" r="3.12"/>
  <circle class="cls-2" cx="67.12" cy="515.12" r="3.12"/>
  <circle class="cls-2" cx="131.12" cy="515.12" r="3.12"/>
  <circle class="cls-2" cx="195.12" cy="515.12" r="3.12"/>
  <circle class="cls-2" cx="259.12" cy="515.12" r="3.12"/>
  <circle class="cls-2" cx="323.12" cy="515.12" r="3.12"/>
  <circle class="cls-2" cx="387.12" cy="515.12" r="3.12"/>
  <circle class="cls-2" cx="451.12" cy="515.12" r="3.12"/>
  <rect class="cls-1" x="289.4" y="49.55" width="137.93" height="133.21" rx="20" ry="20"/>
  <rect class="cls-1" x="34.77" y="49.95" width="248.36" height="132.81" rx="20" ry="20"/>
  <rect class="cls-1" x="339.79" y="187.89" width="137.93" height="111.64" rx="20" ry="20"/>
  <rect class="cls-4" x="178.31" y="187.89" width="155.87" height="155.87" rx="20" ry="20"/>
  <text class="cls-5" transform="translate(199.12 333.84)"><tspan x="0" y="0">P</tspan></text>
  <rect class="cls-1" x="34.77" y="187.89" width="137.93" height="207.1" rx="20" ry="20"/>
  <rect class="cls-1" x="178.8" y="348.87" width="110.6" height="111.64" rx="20" ry="20"/>
</svg>